<svg width="342" height="159" viewBox="0 0 342 159" fill="none" xmlns="http://www.w3.org/2000/svg">
<path d="M45.1328 142.805L9.29297 143C8.64193 143 8.31641 142.674 8.31641 142.023L8.70703 4.62109C8.70703 4.10026 8.96745 3.83984 9.48828 3.83984L46.8906 3.64453C54.3125 3.44922 61.0182 5.14193 67.0078 8.72266C73.0625 12.3034 77.8802 17.1536 81.4609 23.2734C85.1068 29.3281 86.9297 36.0339 86.9297 43.3906V100.812C86.9297 108.495 85.0742 115.526 81.3633 121.906C77.5872 128.221 72.5742 133.267 66.3242 137.043C60.0742 140.754 53.0104 142.674 45.1328 142.805ZM46.8906 27.5703L32.9258 27.7656L32.7305 118.391H45.1328C50.0807 118.391 54.2474 116.665 57.6328 113.215C61.0182 109.764 62.7109 105.63 62.7109 100.812V43.1953C62.7109 38.9635 61.1484 35.2852 58.0234 32.1602C54.8984 28.9701 51.1875 27.4401 46.8906 27.5703ZM126.285 143H103.629C102.978 143 102.652 142.674 102.652 142.023L102.848 4.62109C102.848 4.10026 103.108 3.83984 103.629 3.83984H126.09C126.611 3.83984 126.871 4.10026 126.871 4.62109L127.066 142.023C127.066 142.674 126.806 143 126.285 143ZM178.629 144.953C171.533 144.953 164.99 143.13 159 139.484C153.076 135.839 148.323 130.988 144.742 124.934C141.227 118.814 139.469 112.108 139.469 104.816V95.6367C139.469 94.9206 139.794 94.5625 140.445 94.5625H162.906C163.427 94.5625 163.688 94.9206 163.688 95.6367V104.816C163.688 109.178 165.152 112.954 168.082 116.145C171.012 119.27 174.527 120.832 178.629 120.832C182.796 120.832 186.344 119.237 189.273 116.047C192.203 112.792 193.668 109.048 193.668 104.816C193.668 99.9336 190.478 95.6693 184.098 92.0234C183.056 91.3724 181.689 90.5911 179.996 89.6797C178.368 88.7031 176.415 87.5964 174.137 86.3594C171.858 85.1224 169.645 83.918 167.496 82.7461C165.348 81.5091 163.264 80.3372 161.246 79.2305C153.954 74.9336 148.518 69.5625 144.938 63.1172C141.422 56.6068 139.664 49.3151 139.664 41.2422C139.664 33.8203 141.487 27.1146 145.133 21.125C148.779 15.2005 153.531 10.513 159.391 7.0625C165.315 3.54688 171.728 1.78906 178.629 1.78906C185.725 1.78906 192.236 3.54688 198.16 7.0625C204.085 10.6432 208.805 15.3958 212.32 21.3203C215.901 27.2448 217.691 33.8854 217.691 41.2422V57.6484C217.691 58.1693 217.431 58.4297 216.91 58.4297H194.449C193.928 58.4297 193.668 58.1693 193.668 57.6484L193.473 41.2422C193.473 36.5547 192.008 32.7461 189.078 29.8164C186.148 26.8867 182.665 25.4219 178.629 25.4219C174.527 25.4219 171.012 26.9844 168.082 30.1094C165.152 33.2344 163.688 36.9453 163.688 41.2422C163.688 45.6042 164.599 49.25 166.422 52.1797C168.31 55.1094 171.728 57.9089 176.676 60.5781C177.197 60.8385 178.401 61.4896 180.289 62.5312C182.177 63.5729 184.26 64.7448 186.539 66.0469C188.883 67.2839 190.999 68.4232 192.887 69.4648C194.775 70.4414 195.914 71.0273 196.305 71.2227C202.945 74.9336 208.186 79.4909 212.027 84.8945C215.934 90.2982 217.887 96.9388 217.887 104.816C217.887 112.434 216.129 119.27 212.613 125.324C209.033 131.379 204.28 136.164 198.355 139.68C192.431 143.195 185.855 144.953 178.629 144.953ZM255.191 143H232.535C232.014 143 231.754 142.674 231.754 142.023L232.145 4.81641C232.145 4.16536 232.405 3.83984 232.926 3.83984H255.387C255.908 3.83984 256.168 4.16536 256.168 4.81641V52.1797L287.516 4.62109C288.036 4.10026 288.525 3.83984 288.98 3.83984H311.93C312.516 3.83984 312.646 4.10026 312.32 4.62109L277.75 59.7969L316.52 142.219C316.845 142.74 316.52 143 315.543 143H291.129C290.478 143 290.087 142.74 289.957 142.219L262.906 83.4297L255.973 94.3672V142.023C255.973 142.674 255.712 143 255.191 143Z" fill="#8A64F8"/>
<circle cx="330" cy="131" r="12" fill="#2C353D"/>
</svg>
